<?xml version="1.0" standalone="no"?>
<!DOCTYPE svg>
<svg version="1.0" xmlns="http://www.w3.org/2000/svg" viewBox="0 0 3800 3800" fill="currentColor" stroke="currentColor">

<g transform="translate(0,3500) scale(0.1, -0.1)">
<path d="M25075 35982 c-73 -27 -127 -64 -169 -115 -166 -203 -104 -493 130
-608 178 -88 402 -20 501 151 66 113 71 256 14 372 -40 81 -109 149 -189 186
-77 35 -212 42 -287 14z m240 -144 c117 -62 168 -212 111 -333 -72 -157 -279
-193 -401 -70 -123 122 -87 327 70 402 42 20 61 23 120 20 39 -2 84 -11 100
-19z"/>
<path d="M990 32925 c0 -2855 -1 -3005 -17 -3005 -29 0 -121 -47 -166 -84 -86
-71 -145 -215 -134 -327 21 -193 175 -345 362 -357 87 -5 147 8 222 50 62 34
132 110 162 173 28 60 42 163 31 232 -23 140 -136 267 -273 308 l-42 12 -3
3002 -2 3001 -70 0 -70 0 0 -3005z m161 -3149 c133 -47 200 -209 142 -338 -27
-58 -61 -91 -132 -125 -46 -22 -63 -25 -118 -20 -251 20 -318 352 -94 469 60
31 138 37 202 14z"/>
<path d="M2278 31374 l-3 -4557 -40 -12 c-144 -43 -245 -152 -275 -300 -35
-170 55 -347 218 -427 62 -31 74 -33 167 -33 92 0 105 3 167 33 76 37 152 114
188 188 45 96 46 224 2 324 -40 92 -147 186 -245 215 l-42 12 -3 4557 -2 4556
-65 0 -65 0 -2 -4556z m146 -4705 c45 -13 121 -79 146 -129 59 -117 9 -272
-106 -329 -127 -64 -273 -21 -337 98 -36 66 -43 125 -23 192 39 136 177 208
320 168z"/>
<path d="M3560 33746 l0 -2183 -46 -13 c-112 -32 -226 -143 -259 -254 -8 -27
-15 -85 -15 -128 0 -155 84 -285 227 -350 164 -74 375 -16 477 130 71 102 91
250 48 359 -43 112 -149 213 -256 243 l-46 13 0 2183 0 2184 -65 0 -65 0 0
-2184z m165 -2340 c88 -37 150 -133 148 -231 -1 -103 -51 -183 -141 -226 -56
-27 -149 -30 -203 -7 -91 39 -151 130 -151 227 0 186 178 307 347 237z"/>
<path d="M4839 32288 c-1 -2004 -2 -3654 -2 -3668 l-2 -25 -637 -3 -638 -2 -2
-2568 -3 -2567 -1215 0 -1214 0 -7 32 c-22 108 -128 221 -252 267 -76 29 -214
20 -292 -18 -232 -115 -294 -417 -124 -610 171 -195 480 -173 619 44 18 28 38
69 45 93 l12 42 1282 3 1281 2 2 2573 3 2572 638 3 637 2 0 3735 0 3735 -65 0
-65 0 -1 -3642z m-3989 -8679 c90 -46 139 -126 140 -224 0 -194 -200 -313
-369 -219 -57 32 -90 72 -113 138 -22 63 -22 89 -2 155 16 56 69 123 115 147
71 36 163 38 229 3z"/>
<path d="M6120 31195 l0 -4735 -640 0 -640 0 -2 -2622 -3 -2623 -637 -3 -638
-2 -2 -1163 -3 -1162 -570 0 -570 0 -3 642 -2 643 -642 2 -642 3 -7 32 c-15
76 -103 192 -174 231 -103 56 -237 70 -333 34 -158 -61 -255 -199 -256 -367
-1 -95 21 -162 74 -232 147 -196 418 -216 591 -43 48 48 99 137 102 180 1 20
6 20 579 20 l578 0 0 -645 0 -645 705 0 705 0 0 1165 0 1165 640 0 640 0 1
2598 c1 1428 2 2608 2 2622 l2 25 643 3 642 2 0 4805 0 4805 -70 0 -70 0 0
-4735z m-5275 -10865 c91 -41 144 -124 145 -225 0 -116 -69 -209 -179 -241
-237 -70 -417 215 -255 404 75 88 181 110 289 62z"/>
<path d="M7400 33225 l0 -2705 645 0 c608 0 645 -1 645 -17 0 -37 61 -144 107
-190 26 -25 77 -60 113 -77 59 -28 74 -31 160 -31 82 0 103 4 152 27 159 74
248 224 235 391 -11 136 -103 268 -225 325 -50 23 -69 27 -162 27 -94 0 -111
-3 -160 -27 -104 -52 -174 -128 -210 -231 l-18 -52 -571 -3 -571 -2 0 2635 0
2635 -70 0 -70 0 0 -2705z m1777 -2406 c90 -43 151 -154 140 -251 -12 -101
-75 -182 -166 -213 -60 -20 -110 -19 -175 6 -133 49 -194 205 -131 334 33 69
44 81 106 115 69 38 159 41 226 9z"/>
<path d="M8680 34470 c0 -1384 -1 -1460 -17 -1460 -36 0 -140 -59 -190 -107
-60 -59 -90 -113 -107 -197 -36 -170 47 -342 206 -426 54 -29 75 -35 149 -38
146 -7 249 38 336 147 109 139 109 336 0 480 -39 50 -121 108 -183 127 l-54
18 0 1458 0 1458 -70 0 -70 0 0 -1460z m178 -1621 c97 -48 150 -141 139 -244
-14 -133 -115 -225 -249 -225 -177 0 -289 157 -236 332 17 59 79 123 141 147
77 29 132 27 205 -10z"/>
<path d="M11240 34470 c0 -1384 -1 -1460 -17 -1460 -37 0 -141 -59 -191 -108
-31 -30 -64 -76 -80 -109 -23 -51 -26 -71 -27 -163 0 -101 2 -109 34 -173 41
-81 93 -135 175 -179 59 -32 65 -33 171 -33 93 0 118 3 159 23 203 93 291 327
199 525 -47 99 -138 178 -240 208 l-43 12 0 1459 0 1458 -70 0 -70 0 0 -1460z
m179 -1621 c93 -47 140 -121 140 -224 1 -93 -68 -195 -155 -231 -44 -19 -146
-18 -192 1 -49 21 -110 80 -133 130 -21 46 -25 129 -7 187 17 59 79 123 141
147 77 29 132 27 206 -10z"/>
<path d="M12520 33295 l0 -2635 -575 0 c-541 0 -575 1 -575 18 0 32 -58 139
-97 179 -90 91 -182 128 -307 121 -145 -8 -260 -83 -327 -215 -32 -64 -34 -72
-34 -172 0 -94 4 -113 27 -164 33 -70 116 -154 184 -187 213 -100 472 9 541
227 l17 53 643 0 643 0 0 2705 0 2705 -70 0 -70 0 0 -2635z m-1424 -2479 c63
-29 110 -85 130 -155 20 -66 14 -123 -21 -191 -77 -151 -294 -173 -407 -40
-41 47 -58 98 -58 171 1 178 190 292 356 215z"/>
<path d="M13800 31125 l0 -4805 640 0 640 0 0 -2625 0 -2625 640 0 640 0 0
-1165 0 -1165 710 0 710 0 0 645 0 645 573 0 572 0 19 -52 c36 -103 101 -175
209 -230 56 -29 71 -32 157 -32 87 -1 101 2 162 31 283 134 311 505 53 683
-140 97 -329 81 -479 -40 -31 -25 -92 -126 -106 -174 l-13 -46 -643 0 -644 0
0 -645 0 -645 -570 0 -570 0 0 1165 0 1165 -640 0 -640 0 0 2625 0 2625 -640
0 -640 0 0 4735 0 4735 -70 0 -70 0 0 -4805z m5615 -10794 c190 -88 196 -355
10 -454 -55 -30 -163 -29 -220 0 -147 77 -186 255 -84 384 64 82 200 114 294
70z"/>
<path d="M15080 32195 c0 -3550 1 -3735 18 -3735 9 0 297 0 640 0 l622 0 0
-2575 0 -2575 1283 0 1282 0 19 -52 c65 -184 254 -294 439 -258 127 24 226
101 284 219 25 51 28 66 28 166 0 104 -2 113 -32 171 -36 70 -118 150 -190
185 -42 21 -62 24 -158 24 -101 0 -115 -2 -168 -29 -78 -38 -147 -108 -186
-188 -17 -36 -31 -73 -31 -82 0 -15 -106 -16 -1215 -16 l-1215 0 0 2570 0
2570 -637 2 -638 3 -3 3668 -2 3667 -70 0 -70 0 0 -3735z m4336 -8584 c204
-93 188 -395 -26 -466 -188 -62 -372 116 -316 307 32 109 125 178 241 178 37
0 76 -8 101 -19z"/>
<path d="M16360 33746 l0 -2183 -58 -22 c-105 -38 -187 -115 -233 -216 -33
-72 -33 -217 0 -297 79 -200 335 -300 528 -207 71 34 149 112 185 187 31 62
33 74 33 167 0 93 -2 105 -32 166 -50 102 -139 179 -240 209 l-43 13 0 2184 0
2183 -70 0 -70 0 0 -2184z m188 -2352 c175 -85 175 -354 -2 -438 -73 -35 -115
-41 -178 -22 -113 32 -175 108 -185 224 -10 114 56 214 169 254 65 22 122 17
196 -18z"/>
<path d="M17640 31370 c0 -4336 -1 -4560 -17 -4560 -37 0 -144 -61 -190 -107
-25 -26 -60 -77 -77 -113 -28 -58 -31 -75 -31 -160 0 -86 3 -101 32 -162 40
-84 107 -151 193 -192 59 -28 74 -31 160 -31 118 1 182 24 261 94 172 153 176
407 9 572 -51 50 -95 74 -182 103 -17 5 -18 231 -18 4561 l0 4555 -70 0 -70 0
0 -4560z m181 -4713 c49 -24 98 -74 120 -122 22 -48 25 -151 5 -199 -19 -47
-72 -104 -120 -129 -58 -31 -174 -30 -232 0 -181 96 -176 355 8 448 45 22 63
26 118 23 36 -2 81 -12 101 -21z"/>
<path d="M18920 32928 l0 -3003 -57 -18 c-112 -36 -214 -144 -249 -265 -51
-174 44 -374 216 -456 59 -28 74 -31 160 -31 75 1 107 6 152 24 81 31 159 106
200 189 31 62 33 73 33 172 0 99 -2 109 -33 172 -52 106 -123 162 -269 213
-10 3 -13 613 -13 3005 l0 3000 -70 0 -70 0 0 -3002z m152 -3150 c22 -6 60
-30 85 -52 114 -100 112 -273 -4 -375 -166 -147 -433 -8 -410 214 16 161 170
261 329 213z"/>
<path d="M22570 33435 l0 -2495 -640 0 -640 0 0 -1995 0 -1995 -640 0 -640 0
0 -2055 0 -2055 640 0 640 0 0 -1543 0 -1543 -42 -11 c-75 -20 -164 -86 -208
-153 -57 -90 -73 -146 -68 -244 8 -144 85 -262 219 -333 50 -26 62 -28 169
-28 107 0 119 2 169 28 171 91 258 283 207 459 -35 123 -145 236 -260 268
l-46 13 -2 1609 -3 1609 -638 -1 -637 0 2 1922 3 1923 638 0 637 0 0 1993 0
1992 640 0 640 0 0 2565 0 2565 -70 0 -70 0 0 -2495z m-1136 -13829 c99 -30
164 -111 173 -215 18 -199 -180 -336 -360 -247 -125 61 -174 208 -111 334 56
113 176 164 298 128z"/>
<path d="M32638 33438 l-3 -2493 -638 -5 -637 -5 -3 -1990 -2 -1990 -637 -3
-638 -2 0 -2055 0 -2055 638 -2 637 -3 0 -1539 0 -1538 -55 -21 c-143 -53
-238 -165 -262 -312 -27 -164 63 -335 217 -411 55 -27 69 -29 170 -29 101 0
115 2 168 28 165 82 253 261 214 436 -34 147 -134 249 -299 305 -17 5 -18 91
-18 1611 l0 1605 -625 1 c-344 1 -631 2 -637 3 -19 2 -24 3826 -6 3838 7 4
295 8 641 8 l627 0 0 28 c0 15 1 909 3 1987 l2 1960 638 3 637 2 0 2565 0
2565 -65 0 -65 0 -2 -2492z m-1102 -13846 c52 -26 108 -89 125 -138 17 -51 16
-140 -3 -185 -67 -157 -273 -202 -402 -88 -146 129 -89 367 104 430 40 13 133
3 176 -19z"/>
<path d="M20313 35265 c-112 -25 -221 -114 -270 -222 -34 -75 -42 -190 -18
-264 45 -136 133 -225 268 -268 l37 -13 0 -1214 c0 -963 -3 -1215 -12 -1218
-115 -36 -191 -89 -243 -170 -122 -190 -65 -436 127 -549 144 -86 335 -68 461
43 154 135 169 397 31 550 -48 53 -126 104 -182 119 l-42 12 0 1214 0 1215 28
6 c99 24 207 114 254 213 40 84 50 200 23 280 -65 198 -261 311 -462 266z
m211 -163 c82 -45 126 -121 126 -220 0 -139 -107 -244 -250 -244 -101 0 -181
52 -226 147 -102 215 137 433 350 317z m-19 -3192 c199 -85 190 -384 -12 -460
-64 -24 -115 -25 -174 -5 -93 33 -156 112 -166 207 -20 198 169 337 352 258z"/>
<path d="M30620 35266 c-225 -50 -358 -275 -292 -492 37 -118 142 -226 252
-258 l45 -13 3 -1216 2 -1215 -37 -12 c-135 -43 -235 -147 -269 -280 -34 -134
0 -263 98 -366 86 -91 193 -132 315 -121 122 12 225 76 292 181 50 80 64 134
60 233 -3 64 -10 91 -37 145 -49 100 -154 188 -247 208 l-30 6 0 1219 0 1219
31 6 c92 19 205 117 252 218 51 109 40 261 -24 364 -57 89 -158 158 -263 178
-65 12 -81 12 -151 -4z m189 -153 c82 -40 141 -132 140 -223 0 -106 -45 -182
-134 -225 -93 -46 -197 -34 -273 31 -153 131 -103 367 90 430 50 16 127 10
177 -13z m-4 -3203 c152 -65 193 -281 77 -403 -112 -118 -315 -92 -399 50 -24
41 -28 59 -28 123 0 83 20 134 72 181 79 74 180 92 278 49z"/>
<path d="M34999 35266 c-244 -68 -364 -327 -254 -551 45 -93 158 -185 250
-205 l30 -6 3 -1215 2 -1216 -42 -13 c-107 -31 -189 -98 -236 -192 -107 -211
-29 -440 186 -541 58 -27 78 -31 152 -32 60 0 100 6 135 19 108 41 209 146
241 251 20 69 18 184 -6 251 -38 110 -146 214 -254 244 l-46 13 2 1215 3 1215
42 12 c64 19 126 59 174 113 56 62 85 122 97 197 44 276 -214 514 -479 441z
m217 -161 c84 -49 127 -124 127 -221 -1 -138 -108 -244 -248 -244 -238 0 -340
288 -157 444 68 58 198 68 278 21z m-21 -3192 c128 -65 183 -209 128 -334 -36
-80 -141 -149 -228 -149 -56 0 -131 33 -176 79 -34 33 -51 61 -63 100 -20 67
-20 84 -1 149 43 143 211 220 340 155z"/>
<path d="M25130 33763 l0 -1443 710 0 710 0 0 515 0 515 575 0 575 0 -2 -961
-3 -962 -40 -12 c-111 -33 -193 -104 -247 -213 -30 -61 -33 -74 -33 -162 0
-88 3 -100 34 -165 42 -84 106 -150 186 -190 55 -28 68 -30 165 -30 93 0 112
3 162 27 79 37 148 105 189 185 32 64 34 72 34 172 0 97 -2 111 -29 164 -55
107 -125 170 -231 208 l-50 17 -3 1031 -2 1031 -710 0 -710 0 0 -515 0 -515
-570 0 -570 0 0 1369 0 1369 -70 4 -70 3 0 -1442z m2742 -2497 c116 -56 171
-207 119 -328 -23 -54 -96 -120 -149 -136 -137 -41 -278 31 -317 162 -19 63
-19 90 1 155 18 61 73 122 137 152 52 24 154 22 209 -5z"/>
<path d="M28899 34556 c-102 -42 -166 -104 -214 -208 -96 -210 33 -477 258
-533 l27 -7 0 -1859 0 -1859 -635 0 -635 0 -2 -1378 c-2 -758 -2 -1386 0
-1395 3 -16 54 -17 635 -19 l632 -3 3 -1667 c2 -1615 1 -1668 -16 -1668 -35 0
-137 -59 -185 -106 -191 -189 -134 -511 112 -631 50 -25 67 -28 161 -28 94 0
111 3 166 28 72 34 151 110 188 183 106 205 -7 474 -229 544 -22 7 -43 18 -47
24 -4 6 -8 786 -8 1734 0 1633 -1 1722 -17 1722 -10 0 -297 1 -638 3 l-620 2
0 1260 0 1260 638 3 637 2 0 1909 c0 1050 3 1916 6 1925 3 9 12 16 19 16 7 0
44 16 83 35 85 43 144 105 185 195 56 122 36 283 -47 392 -40 51 -122 111
-185 133 -69 24 -203 20 -272 -9z m258 -138 c84 -39 134 -122 135 -224 4 -225
-274 -337 -428 -172 -68 71 -89 159 -59 247 49 150 207 216 352 149z m-33
-10600 c63 -19 140 -100 160 -168 35 -117 -18 -240 -127 -295 -176 -87 -386
56 -364 247 20 163 173 263 331 216z"/>
<path d="M23779 32707 c-105 -44 -163 -100 -213 -207 -28 -58 -31 -74 -31
-160 0 -87 3 -101 32 -160 18 -36 53 -87 79 -114 45 -46 149 -106 187 -106 16
0 17 -42 17 -750 l0 -750 640 0 640 0 0 -560 0 -560 -640 0 -640 0 0 -793 0
-794 -42 -12 c-124 -38 -230 -149 -263 -280 -74 -282 185 -548 465 -477 124
32 200 92 256 202 38 75 39 80 39 178 0 94 -2 106 -32 166 -17 36 -47 80 -65
99 -44 45 -124 96 -176 112 l-42 12 0 724 0 723 640 0 640 0 0 695 0 695 -637
2 -638 3 -3 683 c-2 645 -1 682 15 682 27 0 120 46 163 80 21 17 54 54 73 83
132 199 62 464 -152 570 -58 28 -77 32 -161 35 -81 2 -103 -1 -151 -21z m222
-127 c20 -6 58 -29 84 -52 164 -145 79 -413 -140 -435 -72 -8 -143 17 -193 68
-58 58 -77 102 -77 184 0 59 4 78 28 117 31 53 80 97 129 115 41 14 122 16
169 3z m43 -4998 c82 -45 126 -121 126 -220 0 -71 -35 -148 -87 -191 -39 -32
-119 -61 -167 -61 -80 2 -171 58 -212 133 -37 67 -41 169 -7 232 70 133 216
178 347 107z"/>
<path d="M33864 32716 c-137 -43 -246 -177 -268 -328 -24 -163 89 -349 249
-410 l70 -26 2 -734 c2 -403 3 -739 3 -745 0 -10 138 -13 638 -15 l637 -3 3
-557 2 -558 -640 -2 -641 -3 1 -791 0 -791 -46 -13 c-57 -16 -150 -76 -188
-121 -70 -83 -105 -210 -86 -318 23 -133 103 -235 228 -294 60 -28 77 -31 157
-31 80 0 97 3 157 31 89 42 150 100 192 183 109 218 1 474 -231 547 l-53 17 2
720 3 721 638 3 637 2 0 695 0 695 -637 2 -638 3 -3 678 c-2 537 0 678 10 682
151 52 218 106 275 223 35 71 38 82 37 161 -1 175 -95 312 -256 373 -57 21
-191 24 -254 4z m231 -150 c187 -86 187 -351 1 -449 -31 -16 -59 -21 -111 -21
-83 0 -132 21 -188 83 -34 38 -67 119 -67 166 0 43 30 121 62 159 68 83 200
110 303 62z m-3 -4973 c86 -34 158 -164 144 -257 -10 -60 -52 -137 -94 -169
-194 -149 -466 33 -398 266 44 150 197 220 348 160z"/>
<path d="M22540 30404 c-172 -46 -289 -201 -290 -382 0 -55 29 -155 58 -201
50 -77 140 -148 220 -172 l42 -12 0 -2854 0 -2853 710 0 710 0 0 815 0 815
570 0 570 0 0 -2005 0 -2004 -42 -12 c-23 -6 -65 -25 -92 -43 -183 -117 -238
-359 -123 -539 168 -262 541 -239 680 43 30 60 32 72 32 165 0 88 -3 107 -27
157 -48 102 -146 189 -245 219 l-43 12 0 2068 0 2069 -706 2 c-388 2 -708 1
-710 -1 -2 -2 -4 -368 -4 -813 l0 -808 -570 0 -570 0 0 2783 0 2784 42 12 c99
30 200 120 247 220 23 49 26 69 26 156 0 92 -3 105 -31 165 -54 110 -143 184
-259 214 -72 19 -123 19 -195 0z m224 -162 c171 -93 168 -343 -6 -437 -66 -36
-161 -39 -223 -7 -47 24 -95 73 -121 122 -28 53 -25 162 5 219 68 130 215 174
345 103z m2534 -8844 c92 -40 152 -131 152 -232 0 -215 -254 -331 -412 -188
-61 55 -82 104 -82 187 -1 79 18 127 68 176 74 73 183 96 274 57z"/>
<path d="M32629 30411 c-62 -13 -152 -63 -200 -111 -154 -154 -153 -397 2
-552 44 -44 77 -63 182 -106 l27 -12 0 -2850 0 -2850 705 0 705 0 2 813 3 812
570 0 570 0 0 -1999 0 -2000 -57 -22 c-116 -45 -204 -135 -243 -249 -23 -68
-21 -178 4 -250 63 -179 257 -292 437 -255 166 34 284 155 315 321 35 193
-102 403 -288 444 l-33 7 0 2069 0 2069 -705 0 -705 0 0 -810 0 -810 -575 0
-575 0 0 2780 0 2780 28 12 c105 43 138 63 182 108 190 189 137 507 -103 625
-77 37 -175 52 -248 36z m152 -147 c117 -34 195 -165 171 -283 -53 -254 -397
-281 -482 -38 -24 68 -25 88 -4 157 21 72 82 135 154 160 68 24 92 24 161 4z
m2558 -8860 c130 -38 205 -177 166 -309 -49 -169 -249 -236 -389 -129 -158
121 -113 380 77 440 56 17 84 17 146 -2z"/>
<path d="M26348 29367 c-271 -115 -343 -438 -142 -640 48 -48 151 -107 186
-107 17 0 18 -38 18 -1070 l0 -1070 645 0 645 0 0 -1020 c0 -959 -1 -1021 -18
-1026 -95 -31 -132 -52 -193 -113 -87 -88 -113 -150 -114 -276 0 -80 4 -97 31
-155 133 -281 510 -315 679 -61 51 78 69 147 62 247 -9 158 -111 293 -259 343
l-53 18 -3 1091 -2 1092 -640 0 -640 0 2 996 3 996 50 17 c106 38 181 104 231
207 26 54 29 68 29 164 0 92 -4 112 -26 160 -38 80 -106 150 -184 190 -59 30
-78 35 -159 37 -78 3 -99 0 -148 -20z m216 -128 c53 -15 138 -100 154 -155 53
-179 -76 -345 -257 -332 -150 11 -255 154 -222 303 32 144 176 225 325 184z
m1281 -4956 c63 -21 136 -93 153 -149 29 -99 6 -198 -61 -266 -129 -128 -360
-70 -411 103 -20 67 -20 94 1 159 31 95 130 168 234 169 19 1 57 -7 84 -16z"/>
<path d="M7355 29327 c-123 -41 -219 -135 -258 -251 -24 -70 -22 -191 3 -258
43 -112 134 -201 242 -235 l58 -18 0 -1927 0 -1928 -570 0 -570 0 0 304 0 305
23 6 c201 62 322 250 287 445 -24 130 -98 228 -218 287 -71 36 -81 38 -166 37
-82 0 -98 -3 -161 -34 -83 -40 -152 -107 -192 -187 -26 -53 -28 -67 -28 -168
0 -102 2 -114 29 -168 48 -93 142 -172 249 -206 l37 -13 0 -190 0 -190 -32 22
c-104 69 -219 87 -334 52 -120 -37 -224 -137 -260 -251 -25 -78 -23 -189 6
-264 30 -80 113 -167 197 -209 117 -57 266 -50 375 19 21 12 40 23 43 23 3 0
5 -1008 5 -2240 l0 -2240 -640 0 -640 0 -2 -1246 -3 -1246 -59 -22 c-91 -34
-174 -108 -216 -192 -31 -61 -35 -80 -38 -161 -5 -109 9 -159 65 -241 198
-287 643 -184 704 164 21 119 -30 266 -119 345 -40 36 -124 82 -184 103 -17 5
-18 70 -18 1181 l0 1175 645 0 645 0 0 2430 0 2430 570 0 570 0 -2 -561 -3
-562 -40 -12 c-103 -30 -197 -111 -241 -208 -26 -56 -29 -72 -29 -167 0 -92 3
-112 26 -160 59 -125 185 -214 319 -226 250 -24 459 197 421 443 -24 153 -137
283 -281 323 l-25 6 -3 562 -2 562 571 -2 572 -3 12 -42 c29 -98 111 -190 215
-241 49 -24 66 -27 160 -27 93 0 112 4 162 27 172 80 264 285 210 464 -36 118
-107 199 -219 252 -50 23 -70 27 -153 27 -86 0 -101 -3 -160 -31 -105 -50
-186 -142 -212 -239 l-12 -45 -573 0 -573 0 0 1930 c0 1831 1 1930 18 1930 40
0 128 53 186 113 120 122 146 289 69 447 -35 72 -103 136 -183 174 -53 25 -80
31 -150 33 -51 2 -101 -2 -125 -10z m221 -151 c85 -40 137 -125 137 -226 1
-78 -22 -129 -81 -182 -103 -93 -252 -88 -349 14 -121 125 -68 346 96 404 59
21 139 17 197 -10z m-1302 -3236 c148 -56 208 -240 121 -371 -48 -74 -117
-111 -205 -111 -98 0 -177 46 -224 132 -72 132 -6 302 136 351 69 24 105 24
172 -1z m-335 -1061 c61 -18 114 -61 144 -117 54 -100 32 -242 -48 -310 -85
-72 -209 -83 -301 -26 -93 57 -140 174 -110 277 41 141 178 217 315 176z
m3216 -6 c103 -35 174 -147 162 -258 -17 -164 -168 -261 -331 -213 -55 16
-138 99 -154 154 -61 208 120 387 323 317z m-1559 -1598 c27 -17 61 -49 77
-72 134 -201 -69 -459 -295 -374 -99 38 -160 126 -160 232 0 100 56 187 147
231 63 29 167 22 231 -17z m-2619 -6070 c67 -20 136 -82 160 -143 65 -170 -50
-342 -232 -344 -105 -2 -183 49 -227 150 -58 129 17 295 152 337 59 18 86 18
147 0z"/>
<path d="M12463 29321 c-64 -23 -68 -26 -120 -68 -96 -77 -149 -199 -140 -325
11 -161 106 -290 257 -345 l55 -21 3 -1926 2 -1926 -573 0 -574 0 -12 43 c-45
151 -188 265 -346 275 -173 11 -325 -85 -391 -249 -23 -56 -26 -75 -22 -154 3
-70 10 -103 30 -147 105 -227 392 -300 591 -149 57 42 123 137 140 198 l11 43
573 0 573 0 -2 -561 -3 -562 -45 -13 c-25 -7 -70 -30 -100 -51 -178 -124 -222
-368 -100 -542 118 -168 324 -217 510 -121 54 28 128 108 161 176 101 204 -5
457 -222 533 l-54 19 -3 561 -2 561 570 0 570 0 0 -2430 0 -2430 640 0 640 0
0 -1178 0 -1179 -42 -13 c-64 -19 -120 -55 -173 -111 -211 -226 -85 -593 222
-649 167 -30 346 67 421 228 24 50 27 69 27 157 0 93 -2 105 -32 166 -50 102
-147 187 -240 211 l-43 10 0 1249 0 1249 -640 0 -640 0 0 2240 c0 1232 2 2240
5 2240 3 0 22 -11 43 -24 99 -65 253 -75 365 -23 74 34 160 119 195 194 24 52
27 69 27 163 -1 95 -3 111 -30 165 -100 207 -356 286 -549 170 l-56 -34 0 190
0 189 28 6 c77 19 173 88 223 161 119 172 78 406 -91 532 -76 56 -137 76 -235
75 -106 -1 -173 -27 -253 -100 -222 -200 -152 -553 130 -655 l58 -22 0 -303 0
-304 -570 0 -570 0 0 1930 c0 1867 1 1930 18 1930 35 0 147 64 191 109 24 25
58 75 75 111 28 58 31 75 31 160 0 86 -3 101 -32 163 -43 89 -121 167 -200
198 -82 31 -210 36 -280 10z m208 -133 c51 -15 114 -70 140 -120 48 -94 30
-217 -42 -289 -52 -52 -92 -71 -164 -77 -150 -12 -275 113 -263 263 14 169
166 272 329 223z m1300 -3253 c58 -29 117 -95 135 -148 54 -164 -63 -329 -235
-329 -77 0 -133 25 -185 83 -125 139 -64 353 115 408 45 14 129 7 170 -14z
m-2868 -1074 c62 -30 112 -97 128 -171 23 -112 -27 -218 -131 -273 -49 -26
-63 -28 -125 -25 -78 5 -116 21 -164 70 -48 48 -71 103 -71 173 0 148 114 260
255 253 37 -2 79 -13 108 -27z m3180 9 c168 -63 212 -286 81 -412 -51 -48
-100 -68 -171 -68 -98 1 -181 50 -226 135 -16 30 -22 58 -22 115 0 64 4 82 28
122 64 110 189 153 310 108z m-1591 -1579 c133 -57 188 -235 111 -360 -99
-159 -328 -158 -428 4 -27 43 -30 57 -30 124 0 59 5 85 22 117 26 50 95 111
138 123 53 16 141 12 187 -8z m2537 -6087 c128 -38 204 -195 157 -325 -43
-121 -180 -191 -304 -154 -238 71 -238 406 0 480 57 18 84 18 147 -1z"/>
<path d="M8650 29276 c-74 -20 -121 -47 -175 -100 -207 -204 -127 -554 148
-647 l52 -18 3 -1565 2 -1566 628 0 c345 0 633 -4 640 -8 10 -7 12 -266 10
-1263 l-3 -1254 -637 -3 -638 -2 0 -1310 0 -1310 -640 0 -640 0 0 -1480 0
-1480 -640 0 -640 0 -2 -1341 -3 -1341 -55 -20 c-114 -42 -201 -131 -242 -246
-30 -86 -23 -217 17 -297 119 -244 439 -296 628 -102 153 157 152 393 -4 549
-47 47 -155 108 -192 108 -16 0 -17 65 -15 1273 l3 1272 643 3 642 2 0 1479
c0 1401 1 1478 18 1478 9 0 297 1 640 2 l622 1 0 1315 0 1314 1208 -2 1207 -2
3 -1312 2 -1313 625 -1 c344 -1 631 -2 638 -3 9 -1 13 -305 15 -1478 l2 -1478
640 0 640 0 0 -1274 0 -1274 -27 -6 c-85 -21 -191 -102 -238 -181 -62 -106
-71 -252 -22 -357 73 -159 254 -258 418 -229 129 22 233 100 291 219 31 62 33
74 33 167 0 90 -3 106 -29 160 -51 102 -146 187 -243 216 l-43 12 0 1344 0
1343 -640 0 -640 0 0 1480 0 1480 -640 0 -640 0 0 1310 0 1310 -640 0 -640 0
2 1263 3 1262 638 0 637 0 0 1568 c0 1245 3 1568 13 1571 113 36 188 88 241
169 101 154 84 346 -43 480 -61 64 -125 101 -206 117 -171 35 -352 -55 -431
-215 -26 -55 -29 -69 -29 -165 0 -93 3 -112 27 -162 47 -101 140 -183 241
-213 l42 -12 0 -1499 0 -1499 -1207 -2 -1208 -2 0 1504 c0 1477 0 1505 19
1505 32 0 110 38 156 76 174 142 192 400 40 563 -102 109 -250 154 -385 117z
m206 -154 c199 -102 186 -378 -21 -457 -55 -21 -154 -17 -204 10 -148 76 -179
289 -59 403 75 71 195 89 284 44z m2535 13 c96 -34 157 -112 166 -215 16 -178
-150 -309 -328 -260 -48 14 -127 84 -150 135 -28 60 -25 153 6 214 57 113 188
167 306 126z m-5094 -14716 c58 -28 110 -92 130 -159 51 -175 -114 -350 -291
-310 -67 15 -99 33 -138 80 -42 48 -58 98 -58 174 0 181 189 295 357 215z
m7633 20 c68 -14 151 -89 174 -156 42 -122 -5 -248 -111 -305 -108 -58 -214
-41 -298 45 -79 81 -97 177 -50 272 38 80 71 110 147 136 63 22 72 22 138 8z"/>
<path d="M21266 26640 c-111 -28 -210 -111 -263 -219 -25 -50 -28 -67 -28
-161 0 -93 3 -112 27 -162 48 -103 133 -177 243 -213 l50 -16 -3 -979 c-2
-924 -3 -980 -20 -980 -32 0 -141 -58 -185 -99 -25 -23 -59 -71 -78 -109 -32
-63 -34 -73 -34 -172 0 -93 3 -112 27 -162 37 -80 108 -152 187 -191 62 -30
73 -32 171 -32 96 0 110 3 165 29 114 56 193 164 216 294 21 118 -21 247 -109
337 -45 45 -149 105 -183 105 -18 0 -19 38 -21 980 l-3 980 54 17 c179 56 296
253 262 439 -23 124 -112 238 -227 291 -62 28 -181 39 -248 23z m175 -145 c61
-22 101 -55 131 -111 72 -133 27 -283 -104 -348 -92 -46 -211 -29 -283 41
-131 127 -88 347 81 413 60 23 118 25 175 5z m-2 -2730 c60 -21 104 -58 134
-114 36 -66 43 -124 24 -192 -34 -116 -135 -185 -257 -177 -74 6 -113 23 -160
70 -47 47 -70 103 -70 173 0 174 168 297 329 240z"/>
<path d="M31309 26632 c-223 -74 -332 -319 -240 -536 40 -91 144 -181 246
-211 l40 -12 0 -978 0 -978 -50 -16 c-192 -64 -300 -257 -258 -462 32 -157
179 -283 346 -296 167 -13 308 69 387 223 22 44 25 61 25 164 0 103 -3 120
-25 164 -51 100 -145 182 -243 211 l-42 12 0 979 0 978 31 6 c94 20 203 110
252 209 25 51 27 66 27 171 0 107 -2 119 -28 169 -70 133 -188 210 -332 217
-59 3 -94 -1 -136 -14z m192 -133 c209 -70 233 -366 37 -463 -126 -63 -279
-12 -336 112 -67 146 5 306 158 353 38 11 103 10 141 -2z m56 -2755 c199 -123
126 -440 -105 -461 -112 -10 -201 38 -248 133 -52 106 -30 220 56 297 60 54
97 67 183 63 53 -3 77 -9 114 -32z"/>
<path d="M26083 23319 c-113 -22 -221 -107 -275 -217 -30 -61 -33 -74 -33
-162 1 -129 26 -193 109 -276 121 -120 264 -151 424 -92 96 36 212 167 232
262 l6 31 1212 3 1212 2 0 -1075 0 -1075 -635 0 -635 0 -2 -1162 -3 -1161 -46
-16 c-192 -67 -306 -253 -271 -442 24 -132 104 -233 230 -292 59 -27 77 -31
152 -31 175 1 309 93 371 254 17 45 20 72 17 150 -3 84 -7 103 -37 163 -50 99
-130 165 -238 197 l-43 13 0 1094 0 1093 643 0 642 0 -3 1210 -2 1210 -1282 2
-1282 3 -6 31 c-18 83 -99 189 -184 239 -80 47 -180 63 -273 44z m194 -160
c117 -56 168 -216 107 -337 -63 -126 -218 -175 -342 -107 -201 109 -162 409
61 466 46 11 125 1 174 -22z m1559 -4914 c188 -56 240 -302 91 -430 -127 -109
-313 -68 -393 85 -27 51 -25 162 3 215 61 116 177 167 299 130z"/>
<path d="M27702 22629 c-304 -51 -436 -419 -231 -644 58 -63 103 -92 174 -116
l50 -16 0 -259 0 -259 -642 -3 -643 -2 -2 -1541 -3 -1541 -50 -17 c-109 -38
-171 -96 -225 -205 -79 -161 -30 -364 114 -472 85 -63 132 -79 236 -79 82 0
103 4 153 27 114 54 197 148 227 260 20 74 9 191 -24 263 -44 97 -144 185
-243 214 l-43 12 0 1469 0 1470 640 0 640 0 2 332 3 331 51 17 c105 36 175 99
230 207 27 53 29 67 29 163 0 93 -3 112 -27 162 -50 108 -171 206 -273 223
-77 12 -90 13 -143 4z m177 -163 c80 -42 131 -127 131 -221 0 -109 -60 -199
-157 -235 -124 -46 -245 -3 -306 108 -53 97 -44 203 24 285 71 86 208 114 308
63z m-1293 -4375 c124 -56 179 -211 120 -336 -105 -226 -438 -171 -472 78 -8
59 17 142 57 191 66 79 201 110 295 67z"/>
<path d="M640 22485 c-288 -81 -383 -447 -169 -656 91 -89 183 -120 313 -108
170 16 295 128 342 307 3 9 255 12 1217 12 l1214 0 12 -42 c30 -101 112 -198
210 -245 51 -26 66 -28 171 -28 107 0 119 2 169 28 76 40 146 115 184 195 29
60 32 77 32 157 0 80 -4 97 -31 155 -101 213 -326 296 -531 195 -102 -50 -152
-111 -211 -258 l-12 -27 -1211 2 -1212 3 -12 48 c-15 58 -74 147 -126 187 -96
76 -236 106 -349 75z m176 -140 c214 -64 237 -371 36 -463 -107 -49 -219 -27
-292 56 -38 43 -70 119 -70 167 0 47 33 128 67 166 73 80 157 105 259 74z
m3217 -5 c124 -47 190 -176 153 -302 -71 -245 -416 -241 -480 6 -34 129 32
254 156 297 69 24 105 24 171 -1z"/>
<path d="M16023 22490 c-110 -26 -217 -114 -267 -220 -28 -59 -31 -74 -31
-165 0 -88 3 -107 27 -157 35 -76 109 -153 183 -192 57 -29 65 -31 175 -31
107 0 119 2 171 28 97 49 175 141 204 240 l12 42 1217 3 c1153 2 1216 1 1216
-15 0 -37 61 -145 110 -194 74 -74 143 -103 257 -107 108 -4 154 8 236 62 112
74 173 204 165 351 -5 100 -37 172 -107 244 -203 208 -545 130 -648 -149 l-21
-55 -1212 0 -1213 0 -12 40 c-58 196 -268 321 -462 275z m194 -158 c153 -78
191 -279 76 -397 -158 -163 -432 -56 -433 168 0 120 66 208 190 248 38 13 123
3 167 -19z m3210 -4 c179 -84 179 -354 0 -444 -138 -70 -308 1 -351 147 -20
66 -20 82 0 148 44 148 206 217 351 149z"/>
<path d="M23840 22197 c-119 -27 -217 -106 -275 -223 -25 -52 -29 -70 -30
-149 0 -71 5 -103 23 -151 41 -107 144 -203 253 -236 l39 -11 0 -1274 0 -1273
-640 0 -640 0 -2 -1477 -3 -1478 -638 0 -637 0 0 -1318 0 -1318 -637 1 -638 1
-3 -1398 -2 -1398 637 0 638 0 3 -1497 2 -1496 -46 -16 c-162 -55 -261 -183
-271 -350 -11 -170 73 -310 231 -382 147 -67 350 -22 452 102 179 217 84 551
-179 629 l-42 12 -3 1567 -2 1566 -640 0 -640 0 0 1265 0 1265 640 0 640 0 0
1310 0 1310 640 0 640 0 0 1480 0 1480 640 0 640 0 0 1343 0 1344 43 12 c99
30 197 117 245 219 24 50 27 69 27 157 0 93 -2 105 -33 167 -81 164 -261 254
-432 215z m191 -158 c195 -99 182 -377 -21 -460 -52 -21 -147 -17 -195 8 -95
50 -140 123 -139 228 0 129 72 215 209 249 33 8 107 -5 146 -25z m-2590
-14689 c51 -14 118 -76 145 -134 88 -188 -79 -392 -281 -347 -144 32 -227 178
-183 323 15 51 82 126 133 149 44 21 130 25 186 9z"/>
<path d="M33910 22200 c-113 -24 -224 -111 -277 -217 -26 -53 -28 -67 -28
-168 0 -102 2 -114 30 -169 51 -101 120 -158 257 -214 l28 -11 -3 -1268 -2
-1268 -637 -3 -638 -2 0 -1474 c0 -1335 -1 -1474 -16 -1480 -9 -3 -297 -6
-640 -6 l-624 0 -1 -1300 c-1 -715 -2 -1306 -3 -1312 0 -7 -7 -14 -13 -14 -7
-1 -294 -2 -638 -3 l-625 -1 0 -1395 0 -1395 628 0 c345 0 633 -4 640 -8 10
-7 12 -314 10 -1502 l-3 -1494 -30 -6 c-52 -11 -134 -59 -180 -105 -113 -116
-144 -297 -74 -443 29 -60 121 -152 181 -180 244 -118 534 43 563 312 19 179
-102 358 -280 411 l-40 12 -3 1567 -2 1566 -638 2 -637 3 0 1260 0 1260 638 3
637 2 0 1310 0 1310 640 0 640 0 0 1480 0 1480 640 0 640 0 0 1344 0 1344 33
7 c56 12 147 67 189 114 22 25 54 75 71 110 26 55 31 77 31 145 0 95 -12 141
-56 216 -80 132 -257 211 -408 180z m185 -159 c76 -34 145 -141 145 -226 0
-100 -84 -210 -181 -239 -65 -20 -83 -20 -145 -1 -144 43 -216 207 -151 348
57 125 201 176 332 118z m-2582 -14695 c96 -35 161 -128 161 -231 0 -224 -270
-336 -428 -179 -75 75 -93 194 -44 289 32 61 59 87 118 114 52 24 136 27 193
7z"/>
<path d="M9887 22090 c-114 -19 -228 -107 -281 -216 -39 -78 -48 -203 -21
-285 42 -125 131 -214 254 -255 l51 -16 0 -1214 0 -1214 -27 -6 c-99 -23 -214
-121 -261 -222 -24 -50 -27 -69 -27 -162 0 -96 3 -110 29 -165 169 -343 668
-274 738 103 33 177 -79 370 -251 433 l-61 22 0 1212 0 1212 59 22 c234 85
332 365 199 573 -59 93 -154 157 -263 177 -65 12 -69 12 -138 1z m169 -155
c152 -63 201 -266 92 -390 -22 -25 -53 -52 -68 -60 -168 -87 -370 31 -370 216
0 185 177 305 346 234z m-16 -3197 c170 -50 224 -285 95 -413 -156 -156 -425
-46 -425 174 0 96 41 173 116 217 70 41 129 47 214 22z"/>
<path d="M29994 21030 c-69 -14 -158 -65 -206 -119 -131 -146 -140 -344 -22
-504 37 -51 138 -122 189 -133 16 -3 36 -11 43 -16 9 -8 12 -263 12 -1215 l0
-1204 -37 -15 c-129 -51 -187 -97 -238 -188 -133 -239 5 -530 275 -578 80 -14
153 -3 228 32 146 69 222 190 223 355 2 171 -102 314 -269 372 l-52 18 2 1214
3 1215 31 6 c129 27 263 173 283 308 10 75 -4 183 -32 238 -82 162 -257 248
-433 214z m152 -145 c149 -44 219 -208 149 -350 -91 -188 -367 -180 -451 13
-9 20 -17 64 -17 97 -1 110 62 201 165 236 65 22 90 23 154 4z m-6 -3200 c58
-10 124 -66 156 -130 78 -160 -20 -341 -195 -362 -103 -12 -221 59 -258 155
-58 152 29 310 187 343 19 4 44 6 55 4 11 -2 36 -6 55 -10z"/>
<path d="M25120 19427 c-247 -56 -379 -328 -269 -554 44 -90 144 -176 237
-204 l42 -12 0 -1179 0 -1178 -640 0 -640 0 0 -2430 0 -2430 -570 0 -570 0 2
561 3 562 42 12 c101 30 188 108 240 214 25 50 28 67 28 156 0 92 -3 106 -32
167 -39 84 -103 147 -191 190 -61 30 -74 33 -162 33 -87 0 -101 -3 -160 -32
-83 -41 -153 -111 -193 -193 -29 -59 -32 -74 -32 -160 0 -83 4 -103 28 -154
52 -112 125 -181 232 -217 l50 -18 3 -560 2 -561 -575 0 c-541 0 -575 1 -575
18 0 32 -58 141 -99 185 -23 25 -71 59 -109 78 -63 32 -73 34 -172 34 -93 0
-112 -3 -162 -27 -203 -95 -285 -329 -185 -531 44 -88 94 -137 186 -181 60
-28 75 -31 161 -31 87 0 101 3 161 32 37 18 87 54 112 79 47 46 107 151 107
186 0 17 23 18 575 18 l575 0 0 -1925 c0 -1825 -1 -1926 -17 -1931 -69 -22
-166 -80 -198 -117 -225 -262 -54 -657 285 -657 156 0 286 84 358 230 24 49
27 66 27 160 -1 94 -3 111 -28 161 -42 87 -98 144 -180 183 -40 19 -80 37 -89
40 -17 5 -18 106 -18 1931 l0 1925 570 0 570 0 0 -305 0 -305 -27 -6 c-49 -12
-124 -54 -168 -95 -132 -122 -163 -325 -72 -480 101 -170 295 -238 482 -168
79 30 173 119 211 201 26 56 29 74 29 163 0 90 -3 106 -29 159 -51 104 -148
190 -244 215 l-42 12 0 189 0 189 56 -34 c193 -116 448 -37 550 170 26 55 29
69 29 165 0 99 -2 110 -32 171 -39 80 -111 150 -191 187 -51 24 -69 27 -163
27 -103 0 -108 -1 -178 -37 l-71 -37 0 2239 0 2240 640 0 640 0 0 1245 0 1245
28 11 c138 55 195 102 247 204 39 76 40 81 40 179 0 94 -2 106 -32 166 -83
169 -257 256 -433 217z m204 -165 c192 -104 159 -397 -52 -458 -224 -66 -405
184 -276 382 69 106 210 139 328 76z m-2603 -6077 c141 -48 208 -207 145 -340
-27 -58 -50 -83 -103 -116 -32 -20 -51 -24 -123 -24 -76 0 -90 3 -128 28 -55
36 -97 95 -112 158 -46 191 136 357 321 294z m-1576 -1589 c157 -73 192 -275
70 -400 -30 -32 -58 -49 -96 -60 -65 -20 -92 -20 -155 -1 -142 42 -214 205
-150 340 27 58 76 107 126 129 54 24 146 20 205 -8z m3200 5 c163 -74 199
-295 67 -413 -140 -127 -367 -58 -413 126 -40 159 79 306 246 306 37 0 76 -8
100 -19z m-320 -1071 c146 -64 191 -251 92 -382 -86 -113 -262 -125 -369 -25
-73 67 -97 206 -51 292 65 123 201 171 328 115z m-1292 -3240 c132 -50 194
-205 133 -335 -42 -91 -108 -135 -209 -143 -109 -8 -216 61 -250 163 -21 60
-21 97 -2 161 41 138 187 207 328 154z"/>
<path d="M35197 19430 c-117 -21 -229 -106 -283 -215 -27 -55 -29 -69 -29
-170 0 -101 2 -115 29 -170 17 -33 51 -81 78 -108 46 -46 154 -107 191 -107
16 0 17 -63 17 -1180 l0 -1180 -640 -2 -640 -3 -3 -2425 -2 -2425 -570 0 -570
0 -3 558 c-2 441 0 558 10 561 143 37 241 120 289 244 29 75 31 195 4 269 -79
220 -331 322 -545 220 -58 -27 -150 -119 -178 -179 -73 -150 -42 -327 76 -445
49 -49 122 -91 176 -103 l31 -6 0 -559 0 -560 -572 -3 -572 -2 -11 42 c-26 96
-118 199 -219 247 -49 23 -68 26 -161 26 -96 0 -110 -3 -165 -29 -80 -40 -149
-111 -188 -194 -29 -61 -32 -76 -32 -162 0 -82 4 -103 27 -153 38 -81 124
-168 199 -202 208 -93 452 12 530 227 l22 58 573 0 574 0 0 -1925 c0 -1532 -3
-1927 -12 -1930 -105 -36 -135 -52 -186 -100 -99 -92 -147 -223 -125 -344 35
-187 180 -318 363 -329 133 -8 229 33 322 137 137 152 122 392 -33 535 -40 38
-77 60 -125 78 l-69 26 -3 1926 -2 1926 575 0 575 0 0 -304 -1 -304 -45 -12
c-183 -52 -307 -249 -274 -438 38 -217 247 -365 457 -322 128 26 228 106 286
228 29 60 32 76 32 157 -1 101 -24 168 -87 246 -40 51 -130 111 -192 129 l-46
13 0 183 c0 164 7 214 24 185 4 -5 26 -20 50 -34 191 -107 441 -22 540 183 28
59 31 74 31 160 0 85 -3 102 -31 160 -38 81 -111 156 -189 195 -56 28 -68 30
-170 30 -107 0 -112 -1 -175 -35 -36 -19 -68 -36 -73 -38 -4 -2 -6 1004 -5
2235 l3 2238 638 3 637 2 0 1250 c0 1184 1 1250 18 1250 32 0 141 58 186 101
59 53 112 158 121 237 8 72 -8 158 -41 224 -76 151 -250 237 -417 208z m169
-155 c129 -53 186 -216 121 -345 -32 -64 -71 -97 -141 -122 -63 -21 -89 -22
-152 -3 -105 31 -174 126 -174 240 1 99 45 176 125 218 75 38 148 43 221 12z
m-2583 -6089 c132 -47 201 -178 163 -308 -32 -109 -125 -178 -241 -178 -169 1
-287 154 -241 313 26 90 87 149 186 181 29 9 95 5 133 -8z m-1578 -1585 c90
-41 147 -130 146 -231 0 -69 -17 -113 -61 -164 -126 -143 -371 -94 -425 86
-19 65 -19 91 1 159 19 63 88 138 144 156 56 18 150 15 195 -6z m3210 -5 c115
-53 167 -174 131 -298 -54 -187 -295 -237 -429 -89 -41 46 -57 93 -57 171 1
179 189 294 355 216z m-318 -1073 c202 -95 177 -393 -38 -457 -66 -20 -82 -20
-150 0 -74 22 -141 89 -163 163 -20 67 -20 84 -1 147 27 90 101 155 198 173
55 10 91 4 154 -26z m-1314 -3227 c90 -33 155 -108 171 -199 25 -137 -80 -271
-223 -284 -137 -13 -246 68 -273 201 -36 181 152 343 325 282z"/>
<path d="M19916 18950 c-111 -28 -210 -111 -263 -219 -25 -50 -28 -66 -28
-161 0 -92 4 -112 27 -161 45 -99 143 -185 241 -214 l42 -12 3 -1214 2 -1214
-52 -19 c-107 -38 -183 -105 -232 -206 -29 -60 -31 -73 -31 -170 0 -96 2 -110
29 -163 101 -199 339 -279 533 -180 72 36 155 126 184 200 32 80 32 213 1 294
-41 104 -158 208 -265 234 l-27 7 2 1215 3 1216 40 12 c54 16 144 74 179 116
16 19 43 63 60 99 28 59 31 74 31 160 0 88 -3 101 -34 164 -66 135 -185 215
-330 222 -42 2 -93 -1 -115 -6z m215 -166 c233 -127 126 -482 -139 -462 -133
10 -220 98 -230 231 -15 197 192 327 369 231z m-15 -3193 c151 -67 191 -284
74 -401 -52 -52 -139 -84 -204 -75 -136 17 -224 117 -226 252 -1 184 183 300
356 224z"/>
<path d="M3509 18521 c-105 -34 -195 -114 -241 -217 -45 -100 -34 -264 23
-358 48 -80 156 -160 244 -182 l25 -6 0 -1469 0 -1469 -640 0 -640 0 -2 -332
-3 -331 -55 -19 c-106 -35 -199 -126 -240 -235 -29 -77 -25 -223 8 -294 32
-69 116 -155 186 -192 58 -30 67 -32 171 -32 104 0 113 2 171 32 314 164 283
609 -50 723 l-51 17 0 259 0 259 638 3 c598 2 637 3 637 20 0 9 0 702 0 1539
l0 1521 56 18 c63 19 141 73 186 128 104 127 109 340 9 472 -104 137 -276 195
-432 145z m216 -145 c162 -75 201 -274 79 -400 -121 -125 -331 -93 -401 61
-61 133 -9 279 122 339 66 31 134 31 200 0z m-1302 -4370 c122 -44 192 -162
166 -283 -34 -165 -207 -252 -356 -178 -115 57 -168 202 -119 320 50 119 191
183 309 141z"/>
<path d="M16337 18530 c-107 -27 -206 -110 -259 -218 -31 -62 -33 -74 -32
-162 1 -111 16 -159 74 -236 47 -62 115 -112 185 -136 l50 -17 3 -1540 2
-1541 640 0 640 0 0 -265 c0 -251 -1 -265 -18 -265 -11 0 -46 -14 -79 -30 -75
-37 -155 -120 -191 -197 -23 -50 -27 -71 -27 -153 0 -86 3 -101 32 -163 39
-82 110 -154 190 -194 53 -26 67 -28 168 -28 101 0 114 2 164 28 79 42 143
107 182 185 32 63 34 73 34 167 0 91 -3 106 -31 165 -17 36 -52 87 -77 113
-46 46 -153 107 -189 107 -17 0 -18 23 -18 335 l0 335 -640 0 -640 0 0 1470 0
1470 28 6 c98 23 207 117 259 222 25 51 28 68 28 157 0 92 -3 106 -32 167 -63
134 -190 219 -332 224 -42 2 -93 -1 -114 -6z m210 -158 c73 -38 121 -111 130
-198 8 -74 -12 -135 -60 -191 -53 -59 -104 -82 -185 -83 -225 -1 -337 269
-175 426 24 23 62 49 86 58 56 21 150 15 204 -12z m1270 -4375 c85 -44 132
-113 140 -206 7 -77 -10 -130 -59 -186 -53 -61 -105 -85 -183 -85 -100 0 -183
49 -228 135 -31 59 -30 163 2 229 25 50 82 99 144 123 41 16 144 10 184 -10z"/>
<path d="M2262 18389 c-104 -20 -220 -111 -270 -211 -103 -208 3 -462 228
-545 l55 -21 3 -1091 2 -1091 -645 0 -645 0 0 -1210 0 -1210 1284 0 1285 0 15
-53 c31 -106 108 -192 222 -244 50 -23 72 -27 150 -27 85 -1 96 2 167 37 204
101 281 323 182 524 -110 224 -380 288 -584 139 -58 -43 -122 -134 -141 -200
l-13 -46 -1211 2 -1211 3 0 1070 0 1070 638 3 637 2 0 1164 0 1164 33 7 c136
30 262 169 287 316 46 270 -197 502 -468 448z m154 -144 c107 -31 177 -126
177 -240 0 -114 -70 -209 -177 -240 -63 -19 -80 -19 -147 1 -39 12 -67 29
-101 63 -132 132 -82 351 94 412 65 22 90 23 154 4z m1641 -4946 c122 -58 176
-216 114 -337 -50 -97 -167 -155 -270 -134 -216 45 -280 315 -106 448 73 55
175 64 262 23z"/>
<path d="M17630 18387 c-80 -19 -138 -52 -201 -118 -181 -184 -126 -495 108
-612 26 -13 60 -27 76 -31 l27 -6 0 -1165 0 -1165 640 0 640 0 0 -1075 0
-1075 -1211 2 -1212 3 -12 42 c-29 96 -116 197 -209 242 -190 93 -417 10 -518
-187 -31 -62 -33 -72 -33 -166 0 -93 3 -106 31 -166 76 -158 252 -252 413
-223 155 29 273 133 316 278 7 22 19 41 26 41 8 1 584 2 1282 3 l1267 1 0
1210 0 1210 -640 0 -640 0 0 1093 0 1093 54 17 c110 35 219 145 252 255 20 67
18 182 -6 248 -64 182 -264 294 -450 251z m156 -142 c112 -33 179 -133 172
-255 -6 -119 -83 -208 -199 -231 -107 -21 -219 35 -272 135 -30 57 -30 165 0
221 31 59 85 105 145 126 65 22 90 23 154 4z m-1565 -4946 c48 -24 116 -102
129 -148 22 -79 5 -172 -44 -236 -13 -17 -48 -44 -77 -60 -134 -72 -304 -9
-355 132 -16 46 -18 131 -3 170 53 141 219 209 350 142z"/>
<path d="M26410 16105 l0 -1165 -640 0 -640 0 0 -2625 0 -2625 -637 0 -638 1
-3 -4806 -2 -4805 70 0 70 0 0 4735 0 4735 640 0 640 0 0 2625 0 2625 640 0
640 0 0 1165 0 1165 573 -2 c500 -3 572 -5 573 -18 1 -8 2 -297 3 -642 l1
-628 638 0 638 0 17 -54 c36 -112 137 -212 256 -251 80 -26 209 -18 283 18 71
35 150 114 185 186 25 51 28 66 28 166 0 98 -3 116 -26 165 -51 107 -144 186
-254 215 -74 19 -125 19 -198 0 -120 -31 -237 -139 -272 -251 l-17 -54 -574 0
-574 0 0 645 0 645 -710 0 -710 0 0 -1165z m3044 35 c96 -36 158 -127 158
-230 0 -144 -105 -250 -246 -250 -145 0 -247 101 -248 245 -1 69 16 116 62
169 72 81 169 105 274 66z"/>
<path d="M8658 17024 c-111 -26 -206 -102 -259 -211 -74 -149 -46 -323 71
-443 47 -49 155 -110 193 -110 16 0 17 -84 17 -1620 l0 -1620 640 0 640 0 0
-1925 0 -1925 -640 0 -640 0 0 -2000 0 -2000 -640 0 -640 0 0 -2575 0 -2575
70 0 70 0 0 2505 0 2505 640 0 640 0 0 2000 0 2000 353 0 c195 0 739 3 1210 7
l857 6 0 -1996 0 -1997 625 -1 c344 -1 631 -2 638 -3 9 -1 13 -509 15 -2499
l2 -2497 70 0 70 0 0 2565 0 2565 -637 2 -638 3 -3 1998 -2 1997 -640 0 -640
0 0 1925 0 1925 640 0 640 0 0 1614 0 1614 33 7 c92 20 207 120 255 222 24 51
27 70 27 153 -1 118 -24 182 -94 261 -151 170 -413 177 -571 16 -127 -130
-147 -338 -48 -487 23 -33 58 -74 78 -90 43 -34 136 -80 163 -80 16 0 17 -80
17 -1545 l0 -1545 -353 0 c-195 0 -739 -3 -1210 -7 l-857 -6 0 1550 0 1550 43
12 c23 7 63 26 89 42 262 167 244 544 -34 685 -65 33 -182 45 -260 28z m188
-149 c45 -18 102 -72 125 -118 99 -193 -84 -414 -293 -353 -107 31 -179 129
-179 241 0 178 181 298 347 230z m2560 0 c51 -21 110 -81 134 -137 18 -42 21
-65 18 -113 -6 -70 -23 -108 -70 -154 -54 -54 -104 -75 -178 -74 -108 0 -189
51 -229 144 -91 210 115 420 325 334z"/>
<path d="M4824 15230 c-117 -23 -234 -124 -280 -240 -24 -61 -26 -78 -22 -162
5 -114 35 -186 110 -261 45 -45 156 -107 193 -107 13 0 15 -223 15 -2070 l0
-2070 710 0 710 0 0 810 0 810 570 0 570 0 0 -2783 0 -2782 -52 -18 c-65 -23
-149 -78 -181 -120 -13 -18 -37 -57 -53 -87 -27 -51 -29 -63 -29 -165 0 -101
2 -115 28 -168 82 -166 273 -257 447 -213 240 61 361 322 256 551 -42 93 -154
186 -248 209 l-28 6 0 2855 0 2855 -710 0 -710 0 -2 -812 -3 -813 -570 0 -570
0 -2 2002 -3 2001 33 7 c181 40 322 255 288 440 -42 226 -247 368 -467 325z
m149 -144 c127 -38 205 -166 177 -290 -52 -233 -358 -275 -463 -64 -70 139 -1
308 143 353 58 18 87 18 143 1z m2546 -8857 c138 -29 227 -176 187 -310 -54
-188 -279 -248 -415 -111 -133 134 -77 360 104 415 62 19 63 19 124 6z"/>
<path d="M15060 15225 c-78 -19 -141 -58 -199 -121 -71 -78 -95 -145 -95 -264
0 -87 2 -101 32 -161 44 -91 128 -168 216 -200 l66 -24 0 -2002 0 -2003 -570
0 -570 0 0 815 0 815 -710 0 -710 0 0 -2855 0 -2855 -27 -6 c-104 -26 -212
-117 -261 -221 -23 -51 -27 -71 -27 -158 0 -95 2 -105 33 -167 102 -200 326
-280 520 -186 64 30 152 121 186 190 52 106 44 257 -17 358 -54 87 -151 162
-239 184 l-28 6 0 2785 0 2785 570 0 570 0 0 -810 0 -810 710 0 710 0 0 2068
0 2069 43 13 c101 30 190 107 240 209 30 61 32 73 32 166 0 87 -3 107 -27 157
-50 107 -152 194 -263 223 -70 18 -111 18 -185 0z m148 -135 c140 -33 225
-188 178 -325 -22 -67 -55 -106 -117 -140 -130 -70 -295 -11 -351 127 -52 129
19 283 152 328 63 22 79 23 138 10z m-2518 -8876 c50 -21 99 -71 126 -129 42
-89 28 -185 -39 -261 -55 -63 -107 -87 -187 -88 -108 -1 -194 55 -230 151 -81
217 118 415 330 327z"/>
<path d="M26088 14290 c-111 -19 -223 -106 -279 -217 -32 -64 -34 -74 -34
-168 0 -93 2 -105 33 -167 36 -75 121 -160 187 -189 220 -97 472 18 540 246
l12 40 1216 3 1215 2 7 -32 c21 -96 103 -199 197 -246 162 -82 329 -58 456 66
28 27 63 73 79 103 26 50 28 62 28 169 0 106 -2 119 -28 173 -130 265 -489
300 -662 66 -24 -33 -52 -85 -62 -115 l-17 -54 -1214 2 -1215 3 -12 42 c-19
65 -59 126 -116 177 -62 55 -120 84 -197 97 -63 10 -68 10 -134 -1z m182 -160
c47 -24 105 -86 125 -132 31 -76 15 -180 -38 -250 -70 -91 -207 -120 -314 -65
-154 79 -178 289 -46 408 36 33 69 49 128 62 33 8 108 -4 145 -23z m3213 -7
c151 -76 175 -296 43 -409 -127 -109 -328 -61 -393 95 -23 55 -20 138 6 199
59 134 208 184 344 115z"/>
<path d="M29262 13005 c-117 -33 -221 -130 -263 -245 l-22 -60 -1283 0 -1284
0 0 -2575 0 -2575 -640 0 -640 0 0 -3735 0 -3735 70 0 70 0 2 3668 3 3667 637
3 638 2 2 2568 3 2567 1212 3 1211 2 7 -32 c31 -140 168 -263 320 -288 175
-28 356 74 420 239 24 60 27 79 23 162 -4 111 -29 175 -98 252 -90 100 -258
149 -388 112z m215 -153 c82 -42 134 -128 135 -222 0 -144 -106 -252 -249
-252 -140 0 -245 105 -246 247 0 116 69 209 183 246 40 13 133 3 177 -19z"/>
<path d="M8628 12927 c-104 -39 -191 -118 -236 -215 -24 -50 -27 -70 -27 -157
0 -89 3 -107 28 -160 46 -98 150 -190 245 -215 l42 -11 0 -1009 c0 -801 3
-1010 13 -1011 6 0 -18 -10 -54 -22 -167 -56 -266 -182 -276 -352 -7 -104 13
-174 73 -255 167 -227 505 -207 651 37 120 203 22 476 -199 557 l-73 27 3
1006 c1 729 -1 1009 -9 1014 -6 3 6 10 28 14 97 18 211 108 261 206 93 186 17
419 -170 520 -58 30 -72 34 -163 36 -67 2 -112 -1 -137 -10z m228 -146 c104
-46 162 -173 134 -292 -18 -76 -93 -151 -173 -174 -194 -56 -362 117 -307 315
20 73 81 133 164 162 58 21 117 17 182 -11z m-22 -2793 c60 -18 131 -92 150
-159 20 -65 20 -92 1 -155 -10 -34 -29 -64 -61 -97 -189 -188 -488 -2 -412
257 15 51 99 137 148 153 48 15 124 15 174 1z"/>
<path d="M11169 12917 c-102 -43 -173 -110 -218 -206 -23 -49 -26 -69 -26
-156 0 -89 3 -107 28 -160 46 -98 150 -190 244 -215 l43 -11 2 -1014 3 -1015
-50 -15 c-101 -29 -194 -111 -243 -215 -23 -48 -26 -68 -27 -160 0 -95 3 -110
28 -163 40 -80 112 -151 194 -190 62 -29 77 -32 163 -32 88 0 101 3 162 33 86
42 153 109 192 192 28 58 31 75 31 160 0 86 -3 101 -32 163 -55 116 -142 185
-278 222 -7 2 -9 347 -7 1019 2 847 4 1016 16 1016 7 0 45 16 84 35 107 54
179 140 208 250 47 173 -36 359 -198 445 -58 31 -72 35 -163 37 -87 3 -107 1
-156 -20z m247 -137 c87 -38 138 -121 138 -225 0 -78 -15 -118 -68 -173 -50
-54 -101 -76 -176 -75 -145 0 -249 102 -250 246 0 187 182 303 356 227z m-25
-2792 c50 -14 114 -69 139 -118 90 -177 -50 -387 -245 -367 -163 17 -261 169
-213 331 15 51 99 137 148 153 47 15 124 16 171 1z"/>
<path d="M960 12811 c-106 -35 -200 -111 -243 -197 -77 -154 -54 -321 60 -444
53 -58 154 -120 195 -120 17 0 18 -57 18 -1737 l0 -1738 622 3 c343 1 633 0
646 -3 l22 -5 -2 -1258 -3 -1257 -642 -3 -643 -2 0 -1923 0 -1924 -42 -12
c-101 -30 -190 -111 -242 -220 -27 -58 -31 -77 -31 -151 0 -67 5 -99 25 -149
32 -82 111 -166 195 -207 56 -27 68 -29 175 -29 105 0 119 2 166 27 150 79
237 245 214 407 -22 158 -130 277 -303 335 -16 5 -17 100 -15 1858 l3 1853
638 3 637 2 0 1395 0 1395 -637 2 -638 3 0 1664 0 1664 51 17 c227 77 332 326
229 542 -32 69 -124 160 -192 190 -52 23 -215 35 -263 19z m205 -150 c61 -28
131 -111 144 -172 14 -64 14 -65 -5 -128 -30 -102 -135 -181 -241 -181 -80 0
-169 50 -210 119 -39 65 -49 124 -33 191 27 112 127 190 244 190 37 0 77 -8
101 -19z m-29 -10606 c107 -31 179 -131 177 -242 -2 -142 -107 -245 -248 -246
-70 0 -117 17 -169 63 -58 52 -81 103 -80 185 1 114 61 200 166 236 65 22 90
23 154 4z"/>
<path d="M18865 12803 c-105 -38 -181 -110 -233 -220 -23 -50 -27 -71 -27
-153 0 -88 3 -101 33 -162 18 -37 53 -87 79 -112 47 -47 151 -106 185 -106 17
0 18 -55 18 -1670 l0 -1670 -640 0 -640 0 0 -1395 0 -1395 640 0 640 0 0
-1858 0 -1857 -66 -24 c-87 -31 -173 -109 -214 -196 -94 -196 -9 -431 189
-524 50 -23 68 -26 166 -26 102 0 114 2 168 29 72 37 145 109 180 178 49 98
51 239 4 342 -44 95 -159 190 -254 211 l-33 7 0 1924 0 1924 -612 1 c-337 1
-624 2 -638 2 l-25 2 -3 1257 -2 1258 22 5 c13 3 301 4 641 3 l617 -3 0 1733
c0 1377 3 1734 13 1737 146 51 217 107 269 213 31 62 33 73 33 172 0 93 -3
112 -27 162 -35 76 -104 148 -181 189 -56 30 -72 34 -157 36 -72 3 -107 -1
-145 -14z m223 -138 c49 -21 110 -80 133 -130 21 -46 25 -129 7 -186 -25 -86
-115 -156 -213 -166 -144 -15 -275 105 -275 252 0 48 27 117 62 159 63 76 194
109 286 71z m-20 -10610 c212 -63 234 -371 34 -463 -164 -75 -341 26 -359 203
-11 108 61 220 164 257 60 22 96 22 161 3z"/>
<path d="M2245 12343 c-98 -25 -201 -112 -250 -209 -28 -55 -30 -67 -30 -169
0 -99 3 -116 27 -168 17 -36 51 -81 87 -117 55 -54 78 -67 189 -105 9 -3 12
-231 12 -1095 l0 -1090 640 0 640 0 -2 -996 -3 -997 -42 -12 c-163 -48 -273
-200 -273 -377 0 -159 76 -281 220 -351 60 -30 73 -32 166 -32 94 0 104 2 168
34 237 121 295 416 120 610 -48 54 -116 98 -179 116 -31 10 -40 17 -42 36 0
13 -1 493 -2 1066 l-1 1043 -637 2 -638 3 0 1019 0 1019 52 18 c277 94 358
441 151 649 -75 75 -143 103 -258 106 -52 2 -104 0 -115 -3z m216 -161 c123
-63 171 -228 101 -341 -27 -45 -66 -82 -107 -104 -56 -30 -164 -30 -220 0
-125 66 -171 207 -112 336 57 125 212 175 338 109z m1272 -4947 c197 -95 181
-392 -25 -461 -59 -19 -148 -15 -195 10 -151 78 -181 289 -58 409 20 20 56 43
79 51 53 20 149 16 199 -9z"/>
<path d="M17595 12337 c-127 -42 -211 -127 -255 -258 -45 -132 -6 -290 96
-393 45 -44 154 -106 188 -106 15 0 16 -90 16 -1025 l0 -1025 -640 0 -640 0 0
-1068 0 -1068 -46 -12 c-102 -27 -189 -106 -242 -219 -23 -50 -27 -71 -27
-153 0 -83 4 -103 28 -154 75 -161 209 -244 381 -234 105 6 178 39 249 110 98
100 137 230 108 369 -24 117 -135 238 -251 277 l-55 19 -3 996 -2 997 640 0
640 0 0 1090 c0 1030 1 1091 18 1096 125 42 217 119 266 224 28 59 31 74 31
165 0 92 -3 105 -32 166 -38 76 -105 144 -184 185 -46 24 -68 28 -149 31 -60
2 -110 -2 -135 -10z m222 -148 c54 -26 116 -96 131 -147 60 -201 -115 -379
-313 -317 -178 56 -233 290 -98 417 71 67 195 88 280 47z m-1312 -4940 c96
-24 175 -132 175 -239 0 -187 -195 -307 -361 -222 -196 99 -178 384 28 458 47
16 101 17 158 3z"/>
<path d="M29259 11557 c-238 -67 -353 -341 -237 -560 53 -99 123 -152 266
-202 10 -4 12 -252 10 -1216 l-3 -1212 -55 -19 c-177 -59 -290 -248 -260 -432
20 -121 104 -234 217 -292 54 -27 66 -29 168 -29 100 0 115 2 167 28 106 52
183 149 214 267 49 189 -75 404 -263 460 l-43 13 0 1219 c0 1112 1 1218 16
1218 9 0 44 13 78 30 79 37 147 109 189 198 28 59 31 77 30 152 -1 114 -27
181 -100 260 -78 85 -158 123 -266 127 -47 1 -102 -3 -128 -10z m186 -138 c62
-17 139 -100 160 -172 48 -167 -88 -332 -260 -314 -179 18 -280 199 -202 359
55 112 174 162 302 127z m20 -3213 c160 -74 200 -273 81 -404 -84 -94 -262
-97 -358 -5 -40 38 -71 119 -71 183 2 181 187 301 348 226z"/>
<path d="M27659 9956 c-104 -28 -201 -111 -252 -215 -29 -60 -32 -75 -32 -161
0 -83 4 -103 27 -153 15 -32 41 -76 58 -97 39 -49 122 -104 185 -123 l50 -14
3 -4557 2 -4556 65 0 65 0 2 4556 3 4557 42 12 c97 29 196 114 244 212 21 42
24 62 24 163 0 114 0 116 -37 180 -37 65 -88 121 -141 154 -84 52 -209 69
-308 42z m185 -138 c65 -20 140 -100 161 -171 37 -129 -34 -260 -164 -305
-167 -58 -348 87 -328 261 20 163 172 262 331 215z"/>
<path d="M34985 9737 c-192 -64 -310 -250 -277 -437 26 -147 139 -275 275
-311 l47 -13 -2 -1215 -3 -1214 -51 -17 c-184 -63 -298 -248 -265 -432 36
-204 199 -336 404 -326 211 9 368 175 368 388 1 168 -105 315 -264 369 l-52
18 0 1213 0 1213 53 18 c96 33 181 109 228 206 26 53 29 68 29 163 0 99 -2
110 -33 172 -39 79 -111 149 -192 186 -66 31 -200 40 -265 19z m221 -150 c154
-80 184 -294 57 -408 -56 -51 -120 -73 -187 -66 -163 17 -267 166 -222 318 20
69 63 120 128 154 46 23 62 26 123 22 39 -2 84 -11 101 -20z m-10 -3201 c94
-44 146 -124 147 -225 0 -65 -31 -145 -71 -184 -43 -41 -116 -69 -182 -68
-112 0 -205 71 -237 180 -59 205 151 387 343 297z"/>
<path d="M6110 9030 c-155 -33 -290 -174 -309 -325 -8 -65 4 -166 26 -213 46
-100 146 -191 239 -218 l54 -15 0 -725 0 -724 -640 0 -640 0 0 -695 0 -695
638 -2 637 -3 0 -679 0 -679 -52 -18 c-102 -34 -189 -114 -235 -215 -19 -41
-23 -66 -23 -154 0 -97 2 -110 31 -170 38 -80 92 -135 175 -180 62 -34 67 -35
174 -35 97 0 116 3 165 26 66 31 152 114 185 178 44 89 53 201 24 301 -17 57
-87 153 -140 192 -42 31 -96 57 -156 74 -10 3 -13 161 -13 749 l0 745 -637 2
-638 3 -3 558 -2 557 645 0 645 0 0 795 0 795 28 6 c91 22 201 113 247 204 99
196 14 436 -188 530 -70 33 -165 45 -237 30z m186 -158 c154 -79 187 -295 62
-407 -54 -50 -101 -68 -173 -68 -179 -1 -297 183 -225 351 55 128 214 186 336
124z m-35 -4964 c107 -36 173 -128 173 -238 -1 -74 -18 -121 -63 -173 -110
-125 -329 -97 -405 51 -73 143 0 316 154 363 38 11 103 10 141 -3z"/>
<path d="M13770 9024 c-249 -67 -365 -355 -234 -581 45 -76 152 -156 237 -177
l27 -6 0 -795 0 -795 640 0 640 0 0 -560 0 -560 -640 0 -640 0 0 -749 0 -748
-29 -6 c-99 -20 -204 -108 -252 -211 -93 -198 -8 -432 190 -525 49 -23 68 -26
161 -26 88 0 113 4 154 23 253 116 315 448 119 638 -47 46 -151 104 -186 104
-16 0 -17 37 -15 683 l3 682 638 3 637 2 0 695 0 695 -640 0 -640 0 0 725 0
725 28 6 c98 24 203 111 253 212 32 63 34 73 34 167 0 93 -2 105 -32 166 -54
109 -145 184 -259 214 -71 18 -122 18 -194 -1z m220 -160 c195 -106 160 -397
-55 -459 -223 -65 -400 190 -268 387 69 103 209 134 323 72z m-35 -4961 c133
-45 202 -209 141 -338 -42 -92 -127 -147 -227 -147 -147 0 -260 125 -246 272
9 100 64 175 153 210 61 24 116 25 179 3z"/>
<path d="M28909 6837 c-141 -59 -227 -165 -252 -311 -31 -184 91 -381 267
-428 l46 -12 0 -3003 0 -3003 70 0 70 0 0 2989 c0 1644 3 2996 6 3005 3 9 14
16 23 16 34 0 123 51 175 99 197 187 145 514 -102 633 -57 27 -80 32 -157 35
-77 3 -98 0 -146 -20z m212 -128 c209 -71 233 -365 37 -463 -102 -51 -236 -25
-306 60 -96 116 -75 276 50 373 49 37 153 52 219 30z"/>
<path d="M20947 5800 c-182 -46 -307 -218 -294 -404 10 -148 87 -265 215 -328
62 -31 73 -33 172 -33 94 0 111 3 161 27 78 39 153 114 189 190 17 35 30 71
30 81 0 16 34 17 575 17 l575 0 0 -2635 0 -2635 70 0 70 0 0 2705 0 2705 -644
0 -644 0 -11 44 c-6 24 -26 66 -44 94 -76 111 -178 172 -303 178 -44 2 -96 -1
-117 -6z m209 -161 c35 -18 61 -42 89 -83 38 -55 40 -61 40 -134 0 -59 -5 -86
-22 -117 -46 -86 -128 -135 -228 -135 -136 0 -233 95 -243 236 -13 193 190
323 364 233z"/>
<path d="M30999 5796 c-103 -28 -209 -120 -257 -224 -22 -48 -26 -71 -26 -152
-1 -86 2 -101 31 -162 38 -81 112 -156 191 -195 51 -25 67 -28 162 -28 98 0
110 2 171 32 101 50 182 145 209 246 l11 37 572 -2 572 -3 3 -2633 2 -2632 65
0 65 0 0 2705 0 2705 -639 0 -638 0 -22 60 c-70 190 -277 299 -472 246z m218
-155 c179 -91 180 -356 1 -445 -98 -49 -213 -32 -289 44 -105 105 -102 258 8
365 67 65 192 82 280 36z"/>
<path d="M2233 5346 c-101 -33 -193 -113 -243 -212 -22 -43 -25 -61 -25 -159
0 -98 3 -116 27 -167 47 -100 142 -183 243 -213 l40 -12 3 -1032 2 -1031 705
0 c665 0 705 1 705 18 0 9 1 240 3 512 l2 495 570 0 570 0 3 -1367 2 -1368 65
0 65 0 0 1440 0 1440 -705 0 -705 0 -2 -517 -3 -518 -570 0 -570 0 0 964 0
964 42 12 c106 31 215 132 254 233 30 80 30 205 -1 285 -30 80 -113 167 -197
209 -56 27 -78 32 -152 35 -54 2 -102 -2 -128 -11z m200 -140 c96 -35 159
-126 160 -230 1 -152 -119 -266 -267 -254 -217 19 -307 279 -149 431 22 21 58
45 79 52 49 18 128 18 177 1z"/>
<path d="M17582 5341 c-101 -38 -185 -119 -235 -228 -17 -38 -22 -67 -22 -143
0 -86 3 -101 31 -161 50 -105 157 -196 255 -216 l29 -5 0 -969 0 -969 -567 2
-568 3 -3 518 -2 517 -710 0 -710 0 0 -1440 0 -1440 70 0 70 0 0 1370 0 1370
570 0 570 0 0 -515 0 -515 710 0 710 0 2 1031 3 1031 61 22 c75 27 121 62 173
130 155 200 79 493 -155 598 -70 31 -209 36 -282 9z m212 -133 c55 -16 138
-99 154 -154 54 -183 -84 -353 -269 -331 -92 11 -167 69 -199 153 -25 69 -25
119 0 187 46 123 180 184 314 145z"/>
<path d="M33940 5262 c-109 -36 -191 -109 -238 -211 -36 -78 -42 -203 -15
-281 42 -118 125 -203 240 -246 l58 -22 3 -1216 c2 -1153 1 -1216 -15 -1216
-33 0 -142 -58 -186 -99 -25 -23 -59 -71 -78 -109 -32 -63 -34 -73 -34 -172 0
-93 3 -111 27 -163 35 -75 113 -156 185 -193 54 -27 66 -29 168 -29 99 0 116
3 168 27 77 36 151 113 190 196 28 60 31 77 31 157 0 114 -24 179 -95 258 -55
62 -109 98 -176 118 l-43 12 0 1219 c0 1176 1 1218 18 1218 41 0 142 62 195
120 180 194 119 501 -120 613 -86 40 -198 47 -283 19z m205 -139 c103 -35 174
-148 161 -257 -26 -221 -295 -304 -438 -136 -62 71 -78 183 -38 265 58 119
187 172 315 128z m-13 -3195 c50 -15 122 -78 151 -132 16 -31 21 -58 21 -111
0 -82 -22 -134 -80 -185 -51 -45 -99 -63 -164 -62 -101 0 -183 50 -225 136
-97 199 86 418 297 354z"/>
<path d="M26400 5217 c-140 -33 -243 -126 -289 -265 -44 -131 -13 -272 85
-381 42 -47 132 -102 187 -115 l27 -6 0 -2185 0 -2185 70 0 70 0 0 2183 0
2183 55 18 c93 29 187 115 234 216 23 48 26 68 26 155 0 88 -3 107 -27 158
-34 71 -65 111 -129 159 -84 63 -206 88 -309 65z m201 -162 c139 -71 173 -266
66 -382 -57 -62 -107 -85 -182 -86 -189 -1 -311 195 -225 364 65 125 210 170
341 104z"/>
<path d="M8220 4679 c-73 -28 -129 -72 -177 -136 -55 -76 -75 -135 -76 -223
-1 -164 77 -289 230 -365 52 -26 68 -29 153 -29 76 0 107 4 153 23 103 41 206
157 232 264 l7 27 1217 0 1217 0 12 -45 c26 -98 107 -189 212 -239 59 -28 74
-31 160 -31 88 0 101 3 163 33 85 42 151 109 191 192 28 59 31 74 31 160 0 86
-3 101 -32 162 -39 83 -108 154 -188 194 -55 26 -69 29 -165 29 -88 0 -113 -4
-154 -23 -101 -46 -181 -133 -215 -235 l-18 -52 -1215 -3 -1215 -2 -12 42
c-30 103 -103 188 -204 240 -55 28 -73 32 -157 35 -78 3 -105 -1 -150 -18z
m235 -138 c98 -44 150 -125 149 -231 -1 -276 -386 -343 -484 -85 -47 123 24
277 147 321 54 19 141 17 188 -5z m3186 8 c84 -26 156 -117 166 -212 12 -118
-62 -230 -172 -263 -202 -58 -373 117 -313 320 15 51 99 137 148 153 47 15
124 16 171 2z"/>
<path d="M9818 4097 c-113 -48 -187 -124 -228 -234 -25 -67 -27 -182 -4 -250
38 -113 141 -215 250 -250 l54 -17 0 -1213 c0 -1147 -1 -1214 -17 -1219 -131
-42 -214 -109 -265 -212 -31 -63 -33 -73 -33 -172 0 -99 2 -109 34 -173 39
-79 101 -139 187 -182 53 -27 68 -29 159 -30 91 0 106 3 165 31 247 117 305
440 114 630 -44 44 -152 104 -186 104 -17 0 -18 65 -18 1220 0 969 3 1220 13
1220 24 0 122 52 165 87 219 179 171 530 -88 651 -44 21 -73 27 -150 29 -82 3
-103 0 -152 -20z m225 -129 c22 -5 58 -27 83 -50 147 -136 85 -377 -111 -429
-116 -32 -256 48 -296 168 -6 19 -9 63 -7 98 7 112 87 203 198 224 45 8 63 7
133 -11z m28 -3216 c104 -54 155 -164 130 -277 -42 -188 -276 -260 -415 -127
-54 52 -76 104 -76 182 0 78 22 130 76 182 76 73 191 89 285 40z"/>
<path d="M21243 3756 c-202 -66 -317 -280 -259 -481 38 -130 153 -243 274
-270 l32 -7 0 -1459 0 -1459 70 0 70 0 0 1459 0 1459 27 7 c101 25 206 112
255 213 31 62 33 74 33 167 0 95 -2 105 -34 168 -41 81 -110 149 -189 185 -69
32 -209 41 -279 18z m223 -146 c162 -69 194 -306 56 -420 -40 -33 -116 -60
-167 -60 -87 0 -183 62 -221 144 -100 215 112 430 332 336z"/>
<path d="M31309 3755 c-111 -41 -189 -107 -234 -198 -109 -224 -1 -467 245
-552 19 -7 36 -17 36 -24 1 -6 2 -661 3 -1456 l1 -1445 65 0 65 0 0 1455 c0
1377 1 1456 18 1461 129 44 224 123 274 231 27 58 32 79 32 148 0 180 -100
321 -268 378 -59 20 -185 21 -237 2z m221 -147 c58 -25 86 -52 118 -113 46
-91 32 -202 -36 -277 -55 -61 -104 -82 -187 -82 -83 0 -132 21 -188 83 -106
117 -72 312 65 382 79 40 146 43 228 7z"/>
<path d="M4783 771 c-139 -52 -242 -173 -262 -309 -10 -74 4 -174 35 -236 34
-70 116 -149 191 -184 51 -24 70 -27 158 -27 89 0 107 3 162 29 72 33 157 116
191 187 92 191 10 421 -183 519 -58 29 -79 34 -153 37 -67 3 -99 -1 -139 -16z
m201 -133 c65 -20 140 -100 161 -171 36 -126 -21 -245 -144 -300 -52 -23 -157
-20 -206 5 -115 60 -168 205 -120 326 20 49 98 124 147 139 46 15 113 15 162
1z"/>
<path d="M15045 776 c-69 -22 -120 -53 -169 -102 -104 -106 -142 -260 -96
-394 12 -35 31 -78 42 -95 33 -49 109 -114 168 -143 49 -24 66 -27 160 -27 93
0 112 3 162 27 173 81 266 286 212 468 -28 94 -79 163 -159 215 -94 61 -224
81 -320 51z m222 -154 c146 -75 177 -277 60 -401 -112 -118 -323 -85 -399 63
-66 128 -1 300 133 349 58 22 151 16 206 -11z"/>
</g>
</svg>
